<svg preserveAspectRatio="none" overflow="visible" style="display: block;" width="223" height="18" viewBox="0 0 223 18" fill="none" xmlns="http://www.w3.org/2000/svg">
<g id="Record">
<line id="Line 1" x1="0.5" y1="7.5" x2="0.5" y2="10.5" stroke="#005DDC" stroke-linecap="round"/>
<line id="Line 28" x1="2.5" y1="7.5" x2="2.5" y2="10.5" stroke="#005DDC" stroke-linecap="round"/>
<line id="Line 29" x1="4.5" y1="7.5" x2="4.5" y2="10.5" stroke="#005DDC" stroke-linecap="round"/>
<line id="Line 30" x1="6.5" y1="7.5" x2="6.5" y2="10.5" stroke="#005DDC" stroke-linecap="round"/>
<line id="Line 31" x1="8.5" y1="7.5" x2="8.5" y2="10.5" stroke="#005DDC" stroke-linecap="round"/>
<line id="Line 32" x1="10.5" y1="7.5" x2="10.5" y2="10.5" stroke="#005DDC" stroke-linecap="round"/>
<line id="Line 33" x1="12.5" y1="6.5" x2="12.5" y2="11.5" stroke="#005DDC" stroke-linecap="round"/>
<line id="Line 34" x1="14.5" y1="6.5" x2="14.5" y2="11.5" stroke="#005DDC" stroke-linecap="round"/>
<line id="Line 35" x1="16.5" y1="6.5" x2="16.5" y2="11.5" stroke="#005DDC" stroke-linecap="round"/>
<line id="Line 36" x1="18.5" y1="6.5" x2="18.5" y2="11.5" stroke="#005DDC" stroke-linecap="round"/>
<line id="Line 37" x1="20.5" y1="6.5" x2="20.5" y2="11.5" stroke="#005DDC" stroke-linecap="round"/>
<line id="Line 38" x1="22.5" y1="5" x2="22.5" y2="13" stroke="#005DDC" stroke-linecap="round"/>
<line id="Line 39" x1="24.5" y1="5" x2="24.5" y2="13" stroke="#005DDC" stroke-linecap="round"/>
<line id="Line 40" x1="26.5" y1="5" x2="26.5" y2="13" stroke="#005DDC" stroke-linecap="round"/>
<line id="Line 41" x1="28.5" y1="5" x2="28.5" y2="13" stroke="#005DDC" stroke-linecap="round"/>
<line id="Line 42" x1="30.5" y1="3.5" x2="30.5" y2="14.5" stroke="#005DDC" stroke-linecap="round"/>
<line id="Line 43" x1="32.5" y1="5" x2="32.5" y2="13" stroke="#005DDC" stroke-linecap="round"/>
<line id="Line 44" x1="34.5" y1="5" x2="34.5" y2="13" stroke="#005DDC" stroke-linecap="round"/>
<line id="Line 45" x1="36.5" y1="5" x2="36.5" y2="13" stroke="#005DDC" stroke-linecap="round"/>
<line id="Line 46" x1="38.5" y1="5" x2="38.5" y2="13" stroke="#005DDC" stroke-linecap="round"/>
<line id="Line 47" x1="40.5" y1="5" x2="40.5" y2="13" stroke="#005DDC" stroke-linecap="round"/>
<line id="Line 48" x1="42.5" y1="0.5" x2="42.5" y2="17.5" stroke="#005DDC" stroke-linecap="round"/>
<line id="Line 49" x1="44.5" y1="1.5" x2="44.5" y2="16.5" stroke="#005DDC" stroke-linecap="round"/>
<line id="Line 50" x1="46.5" y1="1.5" x2="46.5" y2="16.5" stroke="#005DDC" stroke-linecap="round"/>
<line id="Line 51" x1="48.5" y1="1.5" x2="48.5" y2="16.5" stroke="#005DDC" stroke-linecap="round"/>
<line id="Line 52" x1="50.5" y1="1.5" x2="50.5" y2="16.5" stroke="#005DDC" stroke-linecap="round"/>
<line id="Line 53" x1="52.5" y1="3.5" x2="52.5" y2="14.5" stroke="#005DDC" stroke-linecap="round"/>
<line id="Line 54" x1="54.5" y1="3.5" x2="54.5" y2="14.5" stroke="#005DDC" stroke-linecap="round"/>
<line id="Line 55" x1="56.5" y1="5" x2="56.5" y2="13" stroke="#005DDC" stroke-linecap="round"/>
<line id="Line 56" x1="58.5" y1="5" x2="58.5" y2="13" stroke="#005DDC" stroke-linecap="round"/>
<line id="Line 57" x1="60.5" y1="5" x2="60.5" y2="13" stroke="#005DDC" stroke-linecap="round"/>
<line id="Line 58" x1="62.5" y1="5" x2="62.5" y2="13" stroke="#005DDC" stroke-linecap="round"/>
<line id="Line 59" x1="64.5" y1="5" x2="64.5" y2="13" stroke="#005DDC" stroke-linecap="round"/>
<line id="Line 60" x1="66.5" y1="3.5" x2="66.5" y2="14.5" stroke="#005DDC" stroke-linecap="round"/>
<line id="Line 61" x1="68.5" y1="1.5" x2="68.5" y2="16.5" stroke="#005DDC" stroke-linecap="round"/>
<line id="Line 62" x1="70.5" y1="5" x2="70.5" y2="13" stroke="#005DDC" stroke-linecap="round"/>
<line id="Line 63" x1="72.5" y1="5" x2="72.5" y2="13" stroke="#005DDC" stroke-linecap="round"/>
<line id="Line 64" x1="74.5" y1="5" x2="74.5" y2="13" stroke="#005DDC" stroke-linecap="round"/>
<line id="Line 65" x1="76.5" y1="3.5" x2="76.5" y2="14.5" stroke="#005DDC" stroke-linecap="round"/>
<line id="Line 66" x1="78.5" y1="3.5" x2="78.5" y2="14.5" stroke="#005DDC" stroke-linecap="round"/>
<line id="Line 67" x1="80.5" y1="0.5" x2="80.5" y2="17.5" stroke="#005DDC" stroke-linecap="round"/>
<line id="Line 68" x1="82.5" y1="1.5" x2="82.5" y2="16.5" stroke="#005DDC" stroke-linecap="round"/>
<line id="Line 69" x1="84.5" y1="1.5" x2="84.5" y2="16.5" stroke="#005DDC" stroke-linecap="round"/>
<line id="Line 70" x1="86.5" y1="1.5" x2="86.5" y2="16.5" stroke="#005DDC" stroke-linecap="round"/>
<line id="Line 71" x1="88.5" y1="1.5" x2="88.5" y2="16.5" stroke="#005DDC" stroke-linecap="round"/>
<line id="Line 72" x1="90.5" y1="3.5" x2="90.5" y2="14.5" stroke="#005DDC" stroke-linecap="round"/>
<line id="Line 73" x1="92.5" y1="3.5" x2="92.5" y2="14.5" stroke="#005DDC" stroke-linecap="round"/>
<line id="Line 74" x1="94.5" y1="5" x2="94.5" y2="13" stroke="#005DDC" stroke-linecap="round"/>
<line id="Line 75" x1="96.5" y1="5" x2="96.5" y2="13" stroke="#005DDC" stroke-linecap="round"/>
<line id="Line 76" x1="98.5" y1="5" x2="98.5" y2="13" stroke="#005DDC" stroke-linecap="round"/>
<line id="Line 77" x1="100.5" y1="5" x2="100.5" y2="13" stroke="#005DDC" stroke-linecap="round"/>
<line id="Line 78" x1="102.5" y1="7.5" x2="102.5" y2="10.5" stroke="#005DDC" stroke-linecap="round"/>
<line id="Line 79" x1="104.5" y1="7.5" x2="104.5" y2="10.5" stroke="#005DDC" stroke-linecap="round"/>
<line id="Line 80" x1="106.5" y1="5" x2="106.5" y2="13" stroke="#005DDC" stroke-linecap="round"/>
<line id="Line 81" x1="108.5" y1="7.5" x2="108.5" y2="10.5" stroke="#005DDC" stroke-linecap="round"/>
<line id="Line 82" x1="110.5" y1="3.5" x2="110.5" y2="14.5" stroke="#005DDC" stroke-linecap="round"/>
<line id="Line 83" x1="112.5" y1="3.5" x2="112.5" y2="14.5" stroke="#005DDC" stroke-linecap="round"/>
<line id="Line 84" x1="114.5" y1="7.5" x2="114.5" y2="10.5" stroke="#005DDC" stroke-linecap="round"/>
<line id="Line 85" x1="116.5" y1="7.5" x2="116.5" y2="10.5" stroke="#005DDC" stroke-linecap="round"/>
<line id="Line 86" x1="118.5" y1="3.5" x2="118.5" y2="14.5" stroke="#005DDC" stroke-linecap="round"/>
<line id="Line 87" x1="120.5" y1="3.5" x2="120.5" y2="14.5" stroke="#005DDC" stroke-linecap="round"/>
<line id="Line 88" x1="122.5" y1="3.5" x2="122.5" y2="14.5" stroke="#005DDC" stroke-linecap="round"/>
<line id="Line 89" x1="124.5" y1="3.5" x2="124.5" y2="14.5" stroke="#005DDC" stroke-linecap="round"/>
<line id="Line 90" x1="126.5" y1="7.5" x2="126.5" y2="10.5" stroke="#005DDC" stroke-linecap="round"/>
<line id="Line 91" x1="128.5" y1="7.5" x2="128.5" y2="10.5" stroke="#005DDC" stroke-linecap="round"/>
<line id="Line 92" x1="130.5" y1="0.5" x2="130.5" y2="17.5" stroke="#005DDC" stroke-linecap="round"/>
<line id="Line 93" x1="132.5" y1="5" x2="132.5" y2="13" stroke="#005DDC" stroke-linecap="round"/>
<line id="Line 94" x1="134.5" y1="5" x2="134.5" y2="13" stroke="#005DDC" stroke-linecap="round"/>
<line id="Line 95" x1="136.5" y1="5" x2="136.5" y2="13" stroke="#005DDC" stroke-linecap="round"/>
<line id="Line 96" x1="138.5" y1="7.5" x2="138.5" y2="10.5" stroke="#005DDC" stroke-linecap="round"/>
<line id="Line 97" x1="140.5" y1="7.5" x2="140.5" y2="10.5" stroke="#005DDC" stroke-linecap="round"/>
<line id="Line 98" x1="142.5" y1="7.5" x2="142.5" y2="10.5" stroke="#005DDC" stroke-linecap="round"/>
<line id="Line 99" x1="144.5" y1="5" x2="144.5" y2="13" stroke="#005DDC" stroke-linecap="round"/>
<line id="Line 100" x1="146.5" y1="5" x2="146.5" y2="13" stroke="#005DDC" stroke-linecap="round"/>
<line id="Line 101" x1="148.5" y1="5" x2="148.5" y2="13" stroke="#005DDC" stroke-linecap="round"/>
<line id="Line 102" x1="150.5" y1="5" x2="150.5" y2="13" stroke="#005DDC" stroke-linecap="round"/>
<line id="Line 103" x1="152.5" y1="5" x2="152.5" y2="13" stroke="#005DDC" stroke-linecap="round"/>
<line id="Line 104" x1="154.5" y1="5" x2="154.5" y2="13" stroke="#005DDC" stroke-linecap="round"/>
<line id="Line 105" x1="156.5" y1="7.5" x2="156.5" y2="10.5" stroke="#005DDC" stroke-linecap="round"/>
<line id="Line 106" x1="158.5" y1="7.5" x2="158.5" y2="10.5" stroke="#005DDC" stroke-linecap="round"/>
<line id="Line 107" x1="160.5" y1="5" x2="160.5" y2="13" stroke="#005DDC" stroke-linecap="round"/>
<line id="Line 108" x1="162.5" y1="5" x2="162.5" y2="13" stroke="#005DDC" stroke-linecap="round"/>
<line id="Line 109" x1="164.5" y1="1.5" x2="164.5" y2="16.5" stroke="#005DDC" stroke-linecap="round"/>
<line id="Line 110" x1="166.5" y1="5" x2="166.5" y2="13" stroke="#005DDC" stroke-linecap="round"/>
<line id="Line 111" x1="168.5" y1="5" x2="168.5" y2="13" stroke="#005DDC" stroke-linecap="round"/>
<line id="Line 112" x1="170.5" y1="5" x2="170.5" y2="13" stroke="#005DDC" stroke-linecap="round"/>
<line id="Line 2" x1="172.5" y1="7.5" x2="172.5" y2="10.5" stroke="#005DDC" stroke-linecap="round"/>
<line id="Line 3" x1="174.5" y1="7.5" x2="174.5" y2="10.5" stroke="#005DDC" stroke-linecap="round"/>
<line id="Line 4" x1="176.5" y1="3.5" x2="176.5" y2="14.5" stroke="#005DDC" stroke-linecap="round"/>
<line id="Line 5" x1="178.5" y1="7.5" x2="178.5" y2="10.5" stroke="#005DDC" stroke-linecap="round"/>
<line id="Line 6" x1="180.5" y1="3.5" x2="180.5" y2="14.5" stroke="#005DDC" stroke-linecap="round"/>
<line id="Line 7" x1="182.5" y1="5" x2="182.5" y2="13" stroke="#005DDC" stroke-linecap="round"/>
<line id="Line 8" x1="184.5" y1="5" x2="184.5" y2="13" stroke="#005DDC" stroke-linecap="round"/>
<line id="Line 9" x1="186.5" y1="5" x2="186.5" y2="13" stroke="#005DDC" stroke-linecap="round"/>
<line id="Line 10" x1="188.5" y1="0.5" x2="188.5" y2="17.5" stroke="#005DDC" stroke-linecap="round"/>
<line id="Line 11" x1="190.5" y1="1.5" x2="190.5" y2="16.5" stroke="#005DDC" stroke-linecap="round"/>
<line id="Line 12" x1="192.5" y1="3.5" x2="192.5" y2="14.5" stroke="#005DDC" stroke-linecap="round"/>
<line id="Line 13" x1="194.5" y1="3.5" x2="194.5" y2="14.5" stroke="#005DDC" stroke-linecap="round"/>
<line id="Line 14" x1="196.5" y1="7.5" x2="196.5" y2="10.5" stroke="#005DDC" stroke-linecap="round"/>
<line id="Line 15" x1="198.5" y1="5" x2="198.5" y2="13" stroke="#005DDC" stroke-linecap="round"/>
<line id="Line 16" x1="200.5" y1="5" x2="200.5" y2="13" stroke="#005DDC" stroke-linecap="round"/>
<line id="Line 17" x1="202.5" y1="5" x2="202.5" y2="13" stroke="#005DDC" stroke-linecap="round"/>
<line id="Line 18" x1="204.5" y1="6.5" x2="204.5" y2="11.5" stroke="#005DDC" stroke-linecap="round"/>
<line id="Line 19" x1="206.5" y1="6.5" x2="206.5" y2="11.5" stroke="#005DDC" stroke-linecap="round"/>
<line id="Line 20" x1="208.5" y1="6.5" x2="208.5" y2="11.5" stroke="#005DDC" stroke-linecap="round"/>
<line id="Line 21" x1="210.5" y1="6.5" x2="210.5" y2="11.5" stroke="#005DDC" stroke-linecap="round"/>
<line id="Line 22" x1="212.5" y1="6.5" x2="212.5" y2="11.5" stroke="#005DDC" stroke-linecap="round"/>
<line id="Line 23" x1="214.5" y1="6.5" x2="214.5" y2="11.5" stroke="#005DDC" stroke-linecap="round"/>
<line id="Line 24" x1="216.5" y1="7.5" x2="216.5" y2="10.5" stroke="#005DDC" stroke-linecap="round"/>
<line id="Line 25" x1="218.5" y1="7.5" x2="218.5" y2="10.5" stroke="#005DDC" stroke-linecap="round"/>
<line id="Line 26" x1="220.5" y1="7.5" x2="220.5" y2="10.5" stroke="#005DDC" stroke-linecap="round"/>
<line id="Line 27" x1="222.5" y1="7.5" x2="222.5" y2="10.5" stroke="#005DDC" stroke-linecap="round"/>
</g>
</svg>
